<svg width="96" height="96" viewBox="0 0 96 96" fill="none" xmlns="http://www.w3.org/2000/svg">
<path d="M8 88L64 68L28 32L8 88ZM49.4 64.72L21.2 74.8L31.28 46.6L49.4 64.72Z" fill="#1C1D26"/>
<path d="M58.1199 50.1201L80.4799 27.7601C82.4399 25.8001 85.5999 25.8001 87.5599 27.7601L89.9199 30.1201L94.1599 25.8801L91.7999 23.5201C87.5199 19.2401 80.5199 19.2401 76.2399 23.5201L53.8799 45.8801L58.1199 50.1201Z" fill="#03B15E"/>
<path d="M40.2399 27.5198L37.8799 29.8798L42.1199 34.1198L44.4799 31.7598C48.7599 27.4798 48.7599 20.4798 44.4799 16.1998L42.1199 13.8398L37.8799 18.1198L40.2399 20.4798C42.1599 22.3998 42.1599 25.5998 40.2399 27.5198Z" fill="#73D1F9"/>
<path d="M68.2399 47.5201L61.8799 53.8801L66.1199 58.1201L72.4799 51.7601C74.4399 49.8001 77.5999 49.8001 79.5599 51.7601L85.9999 58.2001L90.2399 53.9601L83.7999 47.5201C79.4799 43.2401 72.5199 43.2401 68.2399 47.5201Z" fill="#E87CC9"/>
<path d="M60.2399 23.5198L45.8799 37.8798L50.1199 42.1198L64.4799 27.7598C68.7599 23.4798 68.7599 16.4798 64.4799 12.1998L58.1199 5.83984L53.8799 10.0798L60.2399 16.4398C62.1599 18.3998 62.1599 21.5998 60.2399 23.5198Z" fill="#FA5454"/>
</svg>
