<svg xmlns="http://www.w3.org/2000/svg" xmlns:xlink="http://www.w3.org/1999/xlink" viewBox="0 0 143.67 32.53">
  <defs>
    <linearGradient id="a" x1="18.78" y1="16.52" x2="18.78" y2="-0.75" gradientUnits="userSpaceOnUse">
      <stop offset="0" stop-color="#74c5ee"/>
      <stop offset="0.32" stop-color="#73c2ef"/>
      <stop offset="0.53" stop-color="#6eb9f1"/>
      <stop offset="0.72" stop-color="#66aaf5"/>
      <stop offset="0.88" stop-color="#5a95fa"/>
      <stop offset="1" stop-color="#4f80ff"/>
    </linearGradient>
    <linearGradient id="b" x1="18.76" y1="16.27" x2="37.81" y2="16.27" gradientUnits="userSpaceOnUse">
      <stop offset="0" stop-color="#96d4c8"/>
      <stop offset="1" stop-color="#42c0c6"/>
    </linearGradient>
    <linearGradient id="c" y1="16.27" x2="18.78" y2="16.27" gradientUnits="userSpaceOnUse">
      <stop offset="0" stop-color="#4f80ff"/>
      <stop offset="0.28" stop-color="#4e7ffc"/>
      <stop offset="0.48" stop-color="#4a7cf3"/>
      <stop offset="0.64" stop-color="#4477e4"/>
      <stop offset="0.79" stop-color="#3c6fce"/>
      <stop offset="0.93" stop-color="#3166b3"/>
      <stop offset="1" stop-color="#2b60a3"/>
    </linearGradient>
    <linearGradient id="d" x1="18.78" y1="15.45" x2="18.78" y2="32.57" xlink:href="#a"/>
  </defs>
  <title>logo</title>
  <path
    d="M56,24.11a5.44,5.44,0,0,1-4.09-1.95,6.81,6.81,0,0,1-1.8-4.82,6.56,6.56,0,0,1,1.75-4.72A5.52,5.52,0,0,1,56,10.79a4.94,4.94,0,0,1,3.84,1.65V6.11h3.6v17.8h-3.6v-1.7A4.7,4.7,0,0,1,56,24.11Zm-2.26-6.63A3.62,3.62,0,0,0,54.7,20a2.93,2.93,0,0,0,2.19,1A2.74,2.74,0,0,0,59,20a3.78,3.78,0,0,0,.88-2.57A4,4,0,0,0,59,14.85a2.73,2.73,0,0,0-2.15-1,2.77,2.77,0,0,0-2.18,1.06A3.83,3.83,0,0,0,53.77,17.48Z"
    fill="#161616"/>
  <path
    d="M78,22a7.23,7.23,0,0,1-5.13,2.07A6.8,6.8,0,0,1,68,22.29a6.34,6.34,0,0,1-1.92-4.86,6.27,6.27,0,0,1,2-4.84,6.58,6.58,0,0,1,4.62-1.8,6.67,6.67,0,0,1,4.52,1.6,5.55,5.55,0,0,1,1.86,4.42v1.92h-9.4a2.59,2.59,0,0,0,1.1,1.73,3.51,3.51,0,0,0,2.11.67A4.12,4.12,0,0,0,76,19.86Zm-3.46-7.65a2.7,2.7,0,0,0-1.81-.63,3.29,3.29,0,0,0-2,.65,2.5,2.5,0,0,0-1,1.75h5.67A2.51,2.51,0,0,0,74.57,14.39Z"
    fill="#161616"/>
  <path
    d="M87.87,20.91a4.13,4.13,0,0,0,3.24-1.8l2.13,2.4a7.42,7.42,0,0,1-5.4,2.6,7,7,0,0,1-4.9-1.84,6.18,6.18,0,0,1-2-4.8,6.24,6.24,0,0,1,2-4.82,6.88,6.88,0,0,1,4.81-1.86,7.55,7.55,0,0,1,2.82.57,7.15,7.15,0,0,1,2.51,1.71l-1.87,2.44a4.35,4.35,0,0,0-1.53-1.15A4.31,4.31,0,0,0,87.92,14a3.49,3.49,0,0,0-2.44.93,3.28,3.28,0,0,0-1,2.57,3.25,3.25,0,0,0,1,2.55A3.47,3.47,0,0,0,87.87,20.91Z"
    fill="#161616"/>
  <path
    d="M106.83,22a7.23,7.23,0,0,1-5.13,2.07,6.8,6.8,0,0,1-4.86-1.82,6.34,6.34,0,0,1-1.92-4.86,6.27,6.27,0,0,1,2-4.84,6.58,6.58,0,0,1,4.62-1.8,6.67,6.67,0,0,1,4.52,1.6,5.55,5.55,0,0,1,1.86,4.42v1.92h-9.4a2.59,2.59,0,0,0,1.1,1.73,3.51,3.51,0,0,0,2.11.67,4.12,4.12,0,0,0,3.12-1.27Zm-3.46-7.65a2.7,2.7,0,0,0-1.81-.63,3.29,3.29,0,0,0-2,.65,2.5,2.5,0,0,0-1,1.75h5.67A2.51,2.51,0,0,0,103.37,14.39Z"
    fill="#161616"/>
  <path
    d="M114.08,16.71v7.2h-3.6V11h3.6v1.44a5,5,0,0,1,3.67-1.65,4.55,4.55,0,0,1,3.42,1.44,5.32,5.32,0,0,1,1.38,3.84v7.84H119V16.62c0-2-.73-3-2.19-3a2.62,2.62,0,0,0-1.88.78A3,3,0,0,0,114.08,16.71Z"
    fill="#161616"/>
  <path
    d="M129.92,13.59v5.79a1.64,1.64,0,0,0,.38,1.16,1.2,1.2,0,0,0,.91.42,2.09,2.09,0,0,0,1.71-.91l1.34,2.52a5.22,5.22,0,0,1-3.54,1.54,4.32,4.32,0,0,1-4.43-4.56v-6h-1.51V11h1.51V7.14h3.63V11H133v2.59Z"
    fill="#161616"/>
  <path
    d="M143,14.17a2.73,2.73,0,0,0-2.4,1.14,5.15,5.15,0,0,0-.79,3v5.59h-3.6V11h3.6v1.71a6,6,0,0,1,1.74-1.35,4.62,4.62,0,0,1,2.12-.57l0,3.38Z"
    fill="#161616"/>
  <polygon points="28.17 0 9.39 0 18.78 16.27 28.17 0" fill="url(#a)"/>
  <polygon points="28.17 0 18.78 16.27 28.17 32.53 37.56 16.27 28.17 0" fill="url(#b)"/>
  <polygon points="9.39 0 0 16.27 9.39 32.53 18.78 16.27 18.78 16.27 9.39 0" fill="url(#c)"/>
  <polygon points="18.78 16.27 9.39 32.53 28.17 32.53 18.78 16.27 18.78 16.27" fill="url(#d)"/>
</svg>
