<svg width="24" height="24" xmlns="http://www.w3.org/2000/svg">

 <g>
  <title>background</title>
  <rect fill="none" id="canvas_background" height="402" width="582" y="-1" x="-1"/>
 </g>
 <g>
  <title>Layer 1</title>
  <path id="svg_1" d="m19.235,1.75l-14.47,0c-1.662,0 -3.015,1.352 -3.015,3.015l0,14.471c0,1.662 1.352,3.015 3.015,3.015l14.471,0c1.662,0 3.015,-1.352 3.015,-3.015l0,-14.471c-0.001,-1.663 -1.353,-3.015 -3.016,-3.015zm1.809,17.485c0,0.997 -0.811,1.809 -1.809,1.809l-14.47,0c-0.997,0 -1.809,-0.811 -1.809,-1.809l0,-2.181l4.866,-5.407l6.573,5.975l3.635,-3.029l3.015,2.512l0,2.13l-0.001,0zm0,-3.699l-3.015,-2.512l-3.601,3l-6.691,-6.084l-4.781,5.312l0,-10.487c0,-0.997 0.811,-1.809 1.809,-1.809l14.471,0c0.997,0 1.809,0.811 1.809,1.809l0,10.771l-0.001,0z"/>
  <path id="svg_2" d="m16.221,10.794c1.662,0 3.015,-1.352 3.015,-3.015s-1.352,-3.015 -3.015,-3.015c-1.662,0 -3.015,1.352 -3.015,3.015s1.352,3.015 3.015,3.015zm0,-4.823c0.997,0 1.809,0.811 1.809,1.809s-0.811,1.809 -1.809,1.809s-1.809,-0.811 -1.809,-1.809s0.811,-1.809 1.809,-1.809z"/>
 </g>
</svg>