<svg width="16" height="16" viewBox="0 0 16 16" fill="none" xmlns="http://www.w3.org/2000/svg">
  <path d="M6.6665 1.33325L5.99984 1.99992H2.6665V3.33325H3.33317V13.3333C3.33317 14.062 3.9378 14.6666 4.6665 14.6666H11.3332C12.0619 14.6666 12.6665 14.062 12.6665 13.3333V3.33325H13.3332V1.99992H11.9998H9.99984L9.33317 1.33325H6.6665ZM4.6665 3.33325H11.3332V13.3333H4.6665V3.33325ZM6.47119 5.52856L5.52848 6.47127L7.05713 7.99992L5.52848 9.52856L6.47119 10.4713L7.99984 8.94263L9.52848 10.4713L10.4712 9.52856L8.94254 7.99992L10.4712 6.47127L9.52848 5.52856L7.99984 7.05721L6.47119 5.52856Z"
        fill="currentColor"/>
</svg>
