<svg width="16" height="16" viewBox="0 0 16 16" fill="none" xmlns="http://www.w3.org/2000/svg">
<mask id="eye-crossed" mask-type="alpha" maskUnits="userSpaceOnUse" x="0" y="0" width="16" height="16">
<path d="M13.1893 13.1871L2.66667 2.6645H0V16H16V0H3.79875V1.91096L14.1321 12.2443L13.1893 13.1871Z" fill="white"/>
</mask>
<g mask="url(#eye-crossed)">
<path fill-rule="evenodd" clip-rule="evenodd" d="M12.2103 14.0991L1.87695 3.76575L2.81976 2.82294L13.1531 13.1563L12.2103 14.0991Z" fill="currentColor"/>
<path fill-rule="evenodd" clip-rule="evenodd" d="M8.00065 9.33331C8.73703 9.33331 9.33398 8.73636 9.33398 7.99998C9.33398 7.2636 8.73703 6.66665 8.00065 6.66665C7.26427 6.66665 6.66732 7.2636 6.66732 7.99998C6.66732 8.73636 7.26427 9.33331 8.00065 9.33331ZM8.00065 10.6666C9.47341 10.6666 10.6673 9.47274 10.6673 7.99998C10.6673 6.52722 9.47341 5.33331 8.00065 5.33331C6.52789 5.33331 5.33398 6.52722 5.33398 7.99998C5.33398 9.47274 6.52789 10.6666 8.00065 10.6666Z" fill="currentColor"/>
<path fill-rule="evenodd" clip-rule="evenodd" d="M2.12816 7.99998C3.11964 9.91891 5.33154 11.3333 7.99935 11.3333C10.6672 11.3333 12.8791 9.91891 13.8705 7.99998C12.8791 6.08105 10.6672 4.66665 7.99935 4.66665C5.33154 4.66665 3.11964 6.08105 2.12816 7.99998ZM15.3327 7.99998C14.2652 10.7188 11.385 12.6666 7.99935 12.6666C4.61372 12.6666 1.73347 10.7188 0.666016 7.99998C1.73347 5.2812 4.61372 3.33331 7.99935 3.33331C11.385 3.33331 14.2652 5.2812 15.3327 7.99998Z" fill="currentColor"/>
</g>
</svg>
