<svg width="24" height="24" viewBox="0 0 24 24" fill="none" xmlns="http://www.w3.org/2000/svg">
<path fill-rule="evenodd" clip-rule="evenodd" d="M12 14C13.1046 14 14 13.1046 14 12C14 10.8954 13.1046 10 12 10C10.8954 10 10 10.8954 10 12C10 13.1046 10.8954 14 12 14ZM12 16C14.2091 16 16 14.2091 16 12C16 9.79086 14.2091 8 12 8C9.79086 8 8 9.79086 8 12C8 14.2091 9.79086 16 12 16Z" fill="currentColor"/>
<path fill-rule="evenodd" clip-rule="evenodd" d="M3.19322 12C4.68044 14.8784 7.99829 17 12 17C16.0017 17 19.3196 14.8784 20.8068 12C19.3196 9.12161 16.0017 7 12 7C7.99829 7 4.68044 9.12161 3.19322 12ZM23 12C21.3988 16.0782 17.0784 19 12 19C6.92156 19 2.60118 16.0782 1 12C2.60118 7.92183 6.92156 5 12 5C17.0784 5 21.3988 7.92183 23 12Z" fill="currentColor"/>
</svg>
