<svg width="16" height="13" viewBox="0 0 16 13" xmlns="http://www.w3.org/2000/svg">
<path d="M8.74662 0.373323L5.05329 4.06666C4.80663 4.31332 4.66663 4.65332 4.66663 5.00666V11.6667C4.66663 12.4 5.26663 13 5.99996 13H12C12.5333 13 13.0133 12.68 13.2266 12.1933L15.4 7.11999C15.96 5.79999 14.9933 4.33332 13.56 4.33332H9.79329L10.4266 1.27999C10.4933 0.946656 10.3933 0.606656 10.1533 0.366656C9.75996 -0.0200105 9.13329 -0.0200105 8.74662 0.373323ZM1.99996 13C2.73329 13 3.33329 12.4 3.33329 11.6667V6.33332C3.33329 5.59999 2.73329 4.99999 1.99996 4.99999C1.26663 4.99999 0.666626 5.59999 0.666626 6.33332V11.6667C0.666626 12.4 1.26663 13 1.99996 13Z"/>
</svg>
