<svg width="115" height="40" viewBox="0 0 115 40" fill="none" xmlns="http://www.w3.org/2000/svg">
  <g>
    <path fill="url(#svg-logo-linear-1)" d="M29.8906 2.85156H10.0703L19.9843 20.0234L29.8906 2.85156Z"/>
    <path fill="url(#svg-logo-linear-2)" d="M29.8906 2.85156L19.9844 20.0234L29.8906 37.1875L39.8047 20.0234L29.8906 2.85156Z"/>
    <path fill="url(#svg-logo-linear-3)" d="M10.0703 2.85156L0.164078 20.0234L10.0703 37.1875L19.9844 20.0234L10.0703 2.85156Z"/>
    <path fill="url(#svg-logo-linear-4)" d="M19.9843 20.0234L10.0703 37.1875H29.8906L19.9843 20.0234Z"/>
    <path fill="black" d="M55.0426 26C58.5881 26 60.7358 23.8068 60.7358 20.1705C60.7358 16.5455 58.5881 14.3636 55.0767 14.3636H50.9176V26H55.0426ZM53.3778 23.892V16.4716H54.946C57.1278 16.4716 58.2812 17.5852 58.2812 20.1705C58.2812 22.767 57.1278 23.892 54.9403 23.892H53.3778ZM66.4901 26.1705C68.6491 26.1705 70.1037 25.1193 70.4446 23.5L68.206 23.3523C67.9616 24.017 67.3366 24.3636 66.5298 24.3636C65.3196 24.3636 64.5526 23.5625 64.5526 22.2614V22.2557H70.4957V21.5909C70.4957 18.625 68.7003 17.1591 66.3935 17.1591C63.8253 17.1591 62.1605 18.983 62.1605 21.6761C62.1605 24.4432 63.8026 26.1705 66.4901 26.1705ZM64.5526 20.7557C64.6037 19.7614 65.3594 18.9659 66.4332 18.9659C67.4844 18.9659 68.2116 19.7159 68.2173 20.7557H64.5526ZM76.0185 26.1705C78.3423 26.1705 79.8026 24.8068 79.9162 22.8011H77.6321C77.4901 23.733 76.8764 24.2557 76.0469 24.2557C74.9162 24.2557 74.1832 23.3068 74.1832 21.6364C74.1832 19.9886 74.9219 19.0455 76.0469 19.0455C76.9332 19.0455 77.5014 19.6307 77.6321 20.5H79.9162C79.8139 18.483 78.2855 17.1591 76.0071 17.1591C73.3594 17.1591 71.723 18.9943 71.723 21.6705C71.723 24.3239 73.331 26.1705 76.0185 26.1705ZM85.4432 26.1705C87.6023 26.1705 89.0568 25.1193 89.3977 23.5L87.1591 23.3523C86.9148 24.017 86.2898 24.3636 85.483 24.3636C84.2727 24.3636 83.5057 23.5625 83.5057 22.2614V22.2557H89.4489V21.5909C89.4489 18.625 87.6534 17.1591 85.3466 17.1591C82.7784 17.1591 81.1136 18.983 81.1136 21.6761C81.1136 24.4432 82.7557 26.1705 85.4432 26.1705ZM83.5057 20.7557C83.5568 19.7614 84.3125 18.9659 85.3864 18.9659C86.4375 18.9659 87.1648 19.7159 87.1705 20.7557H83.5057ZM93.4489 20.9545C93.4545 19.8295 94.125 19.1705 95.1023 19.1705C96.0739 19.1705 96.6591 19.8068 96.6534 20.875V26H99.0739V20.4432C99.0739 18.4091 97.8807 17.1591 96.0625 17.1591C94.767 17.1591 93.8295 17.7955 93.4375 18.8125H93.3352V17.2727H91.0284V26H93.4489V20.9545ZM105.624 17.2727H103.982V15.1818H101.561V17.2727H100.368V19.0909H101.561V23.6364C101.55 25.3466 102.714 26.1932 104.47 26.1193C105.095 26.0966 105.538 25.9716 105.783 25.892L105.402 24.0909C105.283 24.1136 105.027 24.1705 104.8 24.1705C104.317 24.1705 103.982 23.9886 103.982 23.3182V19.0909H105.624V17.2727ZM107.2 26H109.621V21.0625C109.626 19.9943 110.399 19.2614 111.376 19.2614C111.706 19.2614 111.973 19.3523 112.2 19.4659L112.928 17.4659C112.609 17.2727 112.2 17.1477 111.734 17.1477C110.751 17.1477 109.956 17.7159 109.638 18.7955H109.547V17.2727H107.2V26Z"/>
  </g>
  <defs>
    <linearGradient id="svg-logo-linear-1" x1="19.9828" y1="20.2898" x2="19.9828" y2="2.06232" gradientUnits="userSpaceOnUse">
      <stop stop-color="#74C5EE"/>
      <stop offset="0.32" stop-color="#73C2EF"/>
      <stop offset="0.53" stop-color="#6EB9F1"/>
      <stop offset="0.72" stop-color="#66AAF5"/>
      <stop offset="0.88" stop-color="#5A95FA"/>
      <stop offset="1" stop-color="#4F80FF"/>
    </linearGradient>
    <linearGradient id="svg-logo-linear-2" x1="19.9617" y1="20.0207" x2="40.0679" y2="20.0207" gradientUnits="userSpaceOnUse">
      <stop stop-color="#96D4C8"/>
      <stop offset="1" stop-color="#42C0C6"/>
    </linearGradient>
    <linearGradient id="svg-logo-linear-3" x1="0.161586" y1="20.0207" x2="19.9828" y2="20.0207" gradientUnits="userSpaceOnUse">
      <stop stop-color="#4F80FF"/>
      <stop offset="0.28" stop-color="#4E7FFC"/>
      <stop offset="0.48" stop-color="#4A7CF3"/>
      <stop offset="0.64" stop-color="#4477E4"/>
      <stop offset="0.79" stop-color="#3C6FCE"/>
      <stop offset="0.93" stop-color="#3166B3"/>
      <stop offset="1" stop-color="#2B60A3"/>
    </linearGradient>
    <linearGradient id="svg-logo-linear-4" x1="19.9828" y1="19.1605" x2="19.9828" y2="37.2297" gradientUnits="userSpaceOnUse">
      <stop stop-color="#74C5EE"/>
      <stop offset="0.32" stop-color="#73C2EF"/>
      <stop offset="0.53" stop-color="#6EB9F1"/>
      <stop offset="0.72" stop-color="#66AAF5"/>
      <stop offset="0.88" stop-color="#5A95FA"/>
      <stop offset="1" stop-color="#4F80FF"/>
    </linearGradient>
  </defs>
</svg>
