<svg width="40" height="40" viewBox="0 0 40 40" fill="none" xmlns="http://www.w3.org/2000/svg">
<path d="M29.8906 2.85156H10.0703L19.9844 20.0234L29.8906 2.85156Z" fill="url(#paint0_linear)"/>
<path d="M29.8906 2.85156L19.9844 20.0234L29.8906 37.1875L39.8047 20.0234L29.8906 2.85156Z" fill="url(#paint1_linear)"/>
<path d="M10.0703 2.85156L0.164062 20.0234L10.0703 37.1875L19.9844 20.0234L10.0703 2.85156Z" fill="url(#paint2_linear)"/>
<path d="M19.9844 20.0234L10.0703 37.1875H29.8906L19.9844 20.0234Z" fill="url(#paint3_linear)"/>
<g style="mix-blend-mode:color">
<path fill-rule="evenodd" clip-rule="evenodd" d="M39.8008 20.0039L29.8867 37.168H10.0664L0.160156 20.0039L10.0664 2.83208L10.0664 2.83203H10.0664H29.8867H29.8867L39.8008 20.0039Z" fill="url(#paint4_linear)"/>
</g>
<defs>
<linearGradient id="paint0_linear" x1="19.9828" y1="20.2898" x2="19.9828" y2="2.06232" gradientUnits="userSpaceOnUse">
<stop stop-color="#74C5EE"/>
<stop offset="0.32" stop-color="#73C2EF"/>
<stop offset="0.53" stop-color="#6EB9F1"/>
<stop offset="0.72" stop-color="#66AAF5"/>
<stop offset="0.88" stop-color="#5A95FA"/>
<stop offset="1" stop-color="#4F80FF"/>
</linearGradient>
<linearGradient id="paint1_linear" x1="19.9617" y1="20.0207" x2="40.0679" y2="20.0207" gradientUnits="userSpaceOnUse">
<stop stop-color="#96D4C8"/>
<stop offset="1" stop-color="#42C0C6"/>
</linearGradient>
<linearGradient id="paint2_linear" x1="0.16157" y1="20.0207" x2="19.9828" y2="20.0207" gradientUnits="userSpaceOnUse">
<stop stop-color="#4F80FF"/>
<stop offset="0.28" stop-color="#4E7FFC"/>
<stop offset="0.48" stop-color="#4A7CF3"/>
<stop offset="0.64" stop-color="#4477E4"/>
<stop offset="0.79" stop-color="#3C6FCE"/>
<stop offset="0.93" stop-color="#3166B3"/>
<stop offset="1" stop-color="#2B60A3"/>
</linearGradient>
<linearGradient id="paint3_linear" x1="19.9828" y1="19.1605" x2="19.9828" y2="37.2297" gradientUnits="userSpaceOnUse">
<stop stop-color="#74C5EE"/>
<stop offset="0.32" stop-color="#73C2EF"/>
<stop offset="0.53" stop-color="#6EB9F1"/>
<stop offset="0.72" stop-color="#66AAF5"/>
<stop offset="0.88" stop-color="#5A95FA"/>
<stop offset="1" stop-color="#4F80FF"/>
</linearGradient>
<linearGradient id="paint4_linear" x1="10.0156" y1="2.83203" x2="29.8369" y2="37.168" gradientUnits="userSpaceOnUse">
<stop offset="0.0756688" stop-color="#3EDCD3"/>
<stop offset="0.924331" stop-color="#03B15E"/>
</linearGradient>
</defs>
</svg>
