<svg width="11" height="11" viewBox="0 0 11 11" fill="none" xmlns="http://www.w3.org/2000/svg">
<path d="M1.05013 1.52171L1.52154 1.05031C1.65171 0.92013 1.86277 0.92013 1.99294 1.05031L9.61555 8.67292L9.61084 4.48213C9.61048 4.39325 9.64562 4.30791 9.70847 4.24506C9.77132 4.18221 9.85666 4.14707 9.94554 4.14743L10.6102 4.15215C10.6991 4.15178 10.7844 4.18693 10.8473 4.24978C10.9101 4.31262 10.9453 4.39797 10.9449 4.48684L10.9496 10.271C10.9497 10.4035 10.8971 10.5307 10.8035 10.6245L10.6244 10.8037C10.5297 10.8961 10.4031 10.9485 10.2708 10.9498L4.48667 10.9451C4.39779 10.9455 4.31245 10.9103 4.2496 10.8475C4.18676 10.7846 4.15161 10.6993 4.15198 10.6104L4.15198 9.94099C4.15108 9.85321 4.18556 9.76875 4.24764 9.70667C4.30972 9.64459 4.39417 9.61012 4.48196 9.61101L8.67274 9.61573L1.05013 1.99311C0.919959 1.86294 0.919959 1.65188 1.05013 1.52171Z" fill="#FC5A5A"/>
</svg>
