<svg width="11" height="11" viewBox="0 0 11 11" fill="none" xmlns="http://www.w3.org/2000/svg">
<path d="M1.5215 9.94979L1.05009 9.47838C0.919916 9.34821 0.919916 9.13715 1.05009 9.00698L8.6727 1.38437L4.48192 1.38908C4.39304 1.38945 4.3077 1.3543 4.24485 1.29146C4.182 1.22861 4.14686 1.14326 4.14722 1.05439L4.15193 0.389705C4.15157 0.300827 4.18672 0.215484 4.24956 0.152637C4.31241 0.0897901 4.39775 0.054644 4.48663 0.0550082L10.2708 0.0502948C10.4033 0.0502124 10.5305 0.102776 10.6243 0.19643L10.8035 0.375564C10.8959 0.470184 10.9482 0.596839 10.9496 0.729117L10.9449 6.51325C10.9452 6.60213 10.9101 6.68747 10.8472 6.75032C10.7844 6.81317 10.6991 6.84831 10.6102 6.84795L9.94078 6.84795C9.85299 6.84884 9.76854 6.81437 9.70646 6.75229C9.64438 6.69021 9.6099 6.60575 9.6108 6.51797L9.61551 2.32718L1.9929 9.94979C1.86273 10.08 1.65167 10.08 1.5215 9.94979Z" fill="#92929D"/>
</svg>
