<svg width="32" height="32" xmlns="http://www.w3.org/2000/svg">
 <g>
  <path fill="#101820" d="m27,27.072464l-22,0a1,1 0 0 1 -0.89,-1.45a18.14,18.14 0 0 0 1.89,-8l0,-3.55a10,10 0 0 1 20,0l0,3.53a18.14,18.14 0 0 0 1.89,8a1,1 0 0 1 -0.89,1.47zm-20.45,-2l18.9,0a20.14,20.14 0 0 1 -1.45,-7.47l0,-3.53a8,8 0 0 0 -16,0l0,3.53a20.14,20.14 0 0 1 -1.45,7.47z"/>
  <path fill="#101820" d="m16,31a5,5 0 0 1 -5,-5a1,1 0 0 1 2,0a3,3 0 0 0 0.88,2.12a3.08,3.08 0 0 0 4.24,0a1,1 0 0 1 1.42,1.42a5,5 0 0 1 -3.54,1.46z"/>
  <path fill="#101820" d="m16,6a1,1 0 0 1 -1,-1l0,-3a1,1 0 0 1 2,0l0,3a1,1 0 0 1 -1,1z"/>
  <path fill="#101820" d="m26,5a2,2 0 1 1 2,-2a2,2 0 0 1 -2,2zm0,-2l0,0zm0,0l0,0zm0,0l0,0zm0,0l0,0zm0,0l0,0zm0,0l0,0zm0,0l0,0zm0,0l0,0z"/>
 </g>
</svg>
