<svg width="24" height="24" viewBox="0 0 24 24" fill="none" xmlns="http://www.w3.org/2000/svg">
<mask id="svg-reload" mask-type="alpha" maskUnits="userSpaceOnUse" x="0" y="0" width="24" height="24">
<path d="M0 12H6V14H0V24H24V12H18V10H24V0H0V12Z" fill="white"/>
</mask>
<g mask="url(#svg-reload)">
<path fill-rule="evenodd" clip-rule="evenodd" d="M12 5C8.13401 5 5 8.13401 5 12C5 15.866 8.13401 19 12 19C15.866 19 19 15.866 19 12C19 8.13401 15.866 5 12 5ZM3 12C3 7.02944 7.02944 3 12 3C16.9706 3 21 7.02944 21 12C21 16.9706 16.9706 21 12 21C7.02944 21 3 16.9706 3 12Z" fill="currentColor"/>
<path d="M14 10H21V3L14 10Z" fill="currentColor"/>
<path d="M10 14H3V21L10 14Z" fill="currentColor"/>
</g>
</svg>
