<svg width="48" height="48" viewBox="0 0 48 48" fill="none" xmlns="http://www.w3.org/2000/svg">
<path d="M4 34H44V38H4V34ZM6.3 25.9L8 22.94L9.7 25.9L12.3 24.4L10.6 21.44H14V18.44H10.6L12.3 15.5L9.7 14L8 16.94L6.3 14L3.7 15.5L5.4 18.44H2V21.44H5.4L3.7 24.4L6.3 25.9ZM19.7 24.4L22.3 25.9L24 22.94L25.7 25.9L28.3 24.4L26.6 21.44H30V18.44H26.6L28.3 15.5L25.7 14L24 16.94L22.3 14L19.7 15.5L21.4 18.44H18V21.44H21.4L19.7 24.4ZM46 18.44H42.6L44.3 15.5L41.7 14L40 16.94L38.3 14L35.7 15.5L37.4 18.44H34V21.44H37.4L35.7 24.4L38.3 25.9L40 22.94L41.7 25.9L44.3 24.4L42.6 21.44H46V18.44Z" fill="currentColor"/>
</svg>
