<svg width="16" height="16" viewBox="0 0 16 16" fill="none" xmlns="http://www.w3.org/2000/svg">
<path fill-rule="evenodd" clip-rule="evenodd" d="M15.736 6.13097L14.4032 7.62212C14.0134 7.2737 13.6109 6.95844 13.1978 6.67727L14.3233 5.02401C14.8116 5.35639 15.2831 5.72618 15.736 6.13097ZM13.3948 4.44858L12.4166 6.19305C11.9632 5.9388 11.4993 5.72398 11.0277 5.54975L11.7207 3.67366C12.2939 3.8854 12.8529 4.14474 13.3948 4.44858ZM7.65679 3.00537L7.72242 5.00429C7.46821 5.01264 7.21352 5.03246 6.95871 5.0639C6.69358 5.09662 6.43009 5.1417 6.16865 5.19888L5.74132 3.24507C6.06244 3.17484 6.38678 3.1193 6.71378 3.07895C7.02804 3.04017 7.34255 3.01569 7.65679 3.00537ZM4.60697 3.5583L5.24157 5.45495C4.74104 5.62242 4.25003 5.83486 3.77135 6.09023L2.82998 4.32563C3.40345 4.01969 3.99689 3.76243 4.60697 3.5583ZM1.8453 4.9112L2.94473 6.5819C2.50725 6.86979 2.08225 7.19489 1.67212 7.55547L0.351562 6.05342C0.828515 5.6341 1.32714 5.25218 1.8453 4.9112ZM9.36295 3.65544C9.41429 3.55707 9.50847 3.4883 9.62134 3.47808C9.80725 3.46125 9.96654 3.59409 9.98338 3.78L9.13767 12.4784L9.13283 12.4989C9.06139 13.1145 8.56447 13.6147 7.92708 13.6724C7.1901 13.7391 6.53843 13.1957 6.4717 12.4587C6.45066 12.2263 6.49782 12.0078 6.58661 11.8057L9.32549 3.75924L9.36295 3.65544Z" fill="currentColor"/>
</svg>
