<svg width="24" height="24" viewBox="0 0 24 24" fill="none" xmlns="http://www.w3.org/2000/svg">
<path d="M12 1C9.80271 1 8 2.80271 8 5C8 5.73067 8.21364 6.40837 8.56055 7H8H6C5.448 7 5 6.551 5 6C5 5.449 5.448 5 6 5C6 4.298 6.12761 3.626 6.34961 3H6C4.346 3 3 4.346 3 6V19C3 20.103 3.897 21 5 21H19C20.103 21 21 20.103 21 19V9C21 8.1846 20.5079 7.4849 19.8066 7.17383C19.9222 6.79987 20 6.40958 20 6C20 3.80267 18.1973 2 16 2C15.5932 2 15.201 2.06745 14.8281 2.18164C14.1024 1.4534 13.1011 1 12 1ZM12 3C13.1164 3 14 3.88359 14 5C14 6.11641 13.1164 7 12 7C10.8836 7 10 6.11641 10 5C10 3.88359 10.8836 3 12 3ZM16 4C17.1167 4 18 4.88333 18 6C18 6.36783 17.8987 6.70636 17.7285 7H15.4395C15.7864 6.40837 16 5.73067 16 5C16 4.65948 15.9427 4.3339 15.8613 4.01758C15.9087 4.01431 15.9515 4 16 4ZM5 8.81641C5.31439 8.92856 5.64761 9 6 9H8H9H19V19H5V8.81641ZM16 13C15.448 13 15 13.448 15 14C15 14.552 15.448 15 16 15C16.552 15 17 14.552 17 14C17 13.448 16.552 13 16 13Z" fill="currentColor"/>
</svg>
