<svg width="120" height="40" viewBox="0 0 120 40" fill="none" xmlns="http://www.w3.org/2000/svg">
<g style="mix-blend-mode:luminosity">
<path d="M29.8906 2.85156H10.0703L19.9844 20.0234L29.8906 2.85156Z" fill="url(#paint0_linear_1103_1966)"/>
</g>
<g style="mix-blend-mode:luminosity">
<path d="M29.8906 2.85156L19.9844 20.0234L29.8906 37.1875L39.8047 20.0234L29.8906 2.85156Z" fill="url(#paint1_linear_1103_1966)"/>
</g>
<g style="mix-blend-mode:luminosity">
<path d="M10.0703 2.85156L0.164062 20.0234L10.0703 37.1875L19.9844 20.0234L10.0703 2.85156Z" fill="url(#paint2_linear_1103_1966)"/>
</g>
<g style="mix-blend-mode:luminosity">
<path d="M19.9844 20.0234L10.0703 37.1875H29.8906L19.9844 20.0234Z" fill="url(#paint3_linear_1103_1966)"/>
</g>
<g style="mix-blend-mode:color">
<path fill-rule="evenodd" clip-rule="evenodd" d="M39.8008 20.0039L29.8867 37.168H10.0664L0.160156 20.0039L10.0664 2.83208L10.0664 2.83203H10.0664H29.8867H29.8867L39.8008 20.0039Z" fill="url(#paint4_linear_1103_1966)"/>
</g>
<path d="M52.8523 14C55.5114 14 57.1222 12.3551 57.1222 9.62784C57.1222 6.90909 55.5114 5.27273 52.8778 5.27273H49.7585V14H52.8523ZM51.6037 12.419V6.85369H52.7798C54.4162 6.85369 55.2812 7.68892 55.2812 9.62784C55.2812 11.5753 54.4162 12.419 52.7756 12.419H51.6037ZM61.4379 14.1278C63.0572 14.1278 64.1481 13.3395 64.4038 12.125L62.7248 12.0142C62.5415 12.5128 62.0728 12.7727 61.4677 12.7727C60.56 12.7727 59.9847 12.1719 59.9847 11.196V11.1918H64.4421V10.6932C64.4421 8.46875 63.0955 7.36932 61.3654 7.36932C59.4393 7.36932 58.1907 8.73722 58.1907 10.7571C58.1907 12.8324 59.4222 14.1278 61.4379 14.1278ZM59.9847 10.0668C60.0231 9.32102 60.5898 8.72443 61.3952 8.72443C62.1836 8.72443 62.729 9.28693 62.7333 10.0668H59.9847ZM68.5842 14.1278C70.3271 14.1278 71.4222 13.1051 71.5075 11.6009H69.7944C69.6879 12.2997 69.2276 12.6918 68.6055 12.6918C67.7575 12.6918 67.2077 11.9801 67.2077 10.7273C67.2077 9.49148 67.7617 8.78409 68.6055 8.78409C69.2702 8.78409 69.6964 9.22301 69.7944 9.875H71.5075C71.4308 8.36222 70.2844 7.36932 68.5756 7.36932C66.5898 7.36932 65.3626 8.74574 65.3626 10.7528C65.3626 12.7429 66.5685 14.1278 68.5842 14.1278ZM75.6527 14.1278C77.272 14.1278 78.3629 13.3395 78.6186 12.125L76.9396 12.0142C76.7564 12.5128 76.2876 12.7727 75.6825 12.7727C74.7749 12.7727 74.1996 12.1719 74.1996 11.196V11.1918H78.657V10.6932C78.657 8.46875 77.3104 7.36932 75.5803 7.36932C73.6541 7.36932 72.4055 8.73722 72.4055 10.7571C72.4055 12.8324 73.6371 14.1278 75.6527 14.1278ZM74.1996 10.0668C74.2379 9.32102 74.8047 8.72443 75.6101 8.72443C76.3984 8.72443 76.9439 9.28693 76.9482 10.0668H74.1996ZM81.657 10.2159C81.6612 9.37216 82.1641 8.87784 82.897 8.87784C83.6257 8.87784 84.0646 9.35511 84.0604 10.1562V14H85.8757V9.83239C85.8757 8.30682 84.9808 7.36932 83.6172 7.36932C82.6456 7.36932 81.9425 7.84659 81.6484 8.60938H81.5717V7.45455H79.8416V14H81.657V10.2159ZM90.788 7.45455H89.5565V5.88636H87.7411V7.45455H86.8462V8.81818H87.7411V12.2273C87.7326 13.5099 88.6062 14.1449 89.9229 14.0895C90.3917 14.0724 90.7241 13.9787 90.9073 13.919L90.6218 12.5682C90.5323 12.5852 90.3406 12.6278 90.1701 12.6278C89.8079 12.6278 89.5565 12.4915 89.5565 11.9886V8.81818H90.788V7.45455ZM91.9705 14H93.7859V10.2969C93.7859 9.49148 94.3739 8.9375 95.1751 8.9375C95.4265 8.9375 95.7717 8.98011 95.9421 9.03551V7.42472C95.7802 7.38636 95.5543 7.3608 95.3711 7.3608C94.6381 7.3608 94.0373 7.78693 93.7987 8.59659H93.7305V7.45455H91.9705V14Z" fill="#B6B7BA"/>
<path d="M49.517 35H53.2074V29.3409H56.3097C60.3239 29.3409 62.6591 26.946 62.6591 23.4602C62.6591 19.9915 60.3665 17.5455 56.4034 17.5455H49.517V35ZM53.2074 26.3835V20.5625H55.696C57.8267 20.5625 58.858 21.7216 58.858 23.4602C58.858 25.1903 57.8267 26.3835 55.7131 26.3835H53.2074ZM70.6918 35.2557C74.6634 35.2557 77.1349 32.5369 77.1349 28.5057C77.1349 24.4489 74.6634 21.7386 70.6918 21.7386C66.7202 21.7386 64.2486 24.4489 64.2486 28.5057C64.2486 32.5369 66.7202 35.2557 70.6918 35.2557ZM70.7088 32.4432C68.8764 32.4432 67.9389 30.7642 67.9389 28.4801C67.9389 26.196 68.8764 24.5085 70.7088 24.5085C72.5071 24.5085 73.4446 26.196 73.4446 28.4801C73.4446 30.7642 72.5071 32.4432 70.7088 32.4432ZM79.4957 35H83.1264V27.5938C83.1264 25.983 84.3026 24.875 85.9048 24.875C86.4077 24.875 87.098 24.9602 87.4389 25.071V21.8494C87.1151 21.7727 86.6634 21.7216 86.2969 21.7216C84.831 21.7216 83.6293 22.5739 83.152 24.1932H83.0156V21.9091H79.4957V35ZM96.9354 21.9091H94.4723V18.7727H90.8416V21.9091H89.0518V24.6364H90.8416V31.4545C90.8246 34.0199 92.5717 35.2898 95.2053 35.179C96.1428 35.1449 96.8075 34.9574 97.174 34.8381L96.603 32.1364C96.424 32.1705 96.0405 32.2557 95.6996 32.2557C94.9751 32.2557 94.4723 31.983 94.4723 30.9773V24.6364H96.9354V21.9091ZM103.033 35.2472C104.968 35.2472 106.221 34.4034 106.86 33.1847H106.962V35H110.406V26.1705C110.406 23.0511 107.763 21.7386 104.849 21.7386C101.712 21.7386 99.6499 23.2386 99.147 25.625L102.505 25.8977C102.752 25.0284 103.528 24.3892 104.832 24.3892C106.067 24.3892 106.775 25.0114 106.775 26.0852V26.1364C106.775 26.9801 105.88 27.0909 103.604 27.3125C101.013 27.5511 98.6868 28.4205 98.6868 31.3438C98.6868 33.9347 100.536 35.2472 103.033 35.2472ZM104.073 32.7415C102.957 32.7415 102.156 32.2216 102.156 31.2244C102.156 30.2017 102.999 29.6989 104.278 29.5199C105.07 29.4091 106.366 29.2216 106.8 28.9318V30.321C106.8 31.6932 105.667 32.7415 104.073 32.7415ZM116.853 17.5455H113.222V35H116.853V17.5455Z" fill="#1C1D26"/>
<defs>
<linearGradient id="paint0_linear_1103_1966" x1="19.9828" y1="20.2898" x2="19.9828" y2="2.06232" gradientUnits="userSpaceOnUse">
<stop stop-color="#74C5EE"/>
<stop offset="0.32" stop-color="#73C2EF"/>
<stop offset="0.53" stop-color="#6EB9F1"/>
<stop offset="0.72" stop-color="#66AAF5"/>
<stop offset="0.88" stop-color="#5A95FA"/>
<stop offset="1" stop-color="#4F80FF"/>
</linearGradient>
<linearGradient id="paint1_linear_1103_1966" x1="19.9617" y1="20.0207" x2="40.0679" y2="20.0207" gradientUnits="userSpaceOnUse">
<stop stop-color="#96D4C8"/>
<stop offset="1" stop-color="#42C0C6"/>
</linearGradient>
<linearGradient id="paint2_linear_1103_1966" x1="0.16157" y1="20.0207" x2="19.9828" y2="20.0207" gradientUnits="userSpaceOnUse">
<stop stop-color="#4F80FF"/>
<stop offset="0.28" stop-color="#4E7FFC"/>
<stop offset="0.48" stop-color="#4A7CF3"/>
<stop offset="0.64" stop-color="#4477E4"/>
<stop offset="0.79" stop-color="#3C6FCE"/>
<stop offset="0.93" stop-color="#3166B3"/>
<stop offset="1" stop-color="#2B60A3"/>
</linearGradient>
<linearGradient id="paint3_linear_1103_1966" x1="19.9828" y1="19.1605" x2="19.9828" y2="37.2297" gradientUnits="userSpaceOnUse">
<stop stop-color="#74C5EE"/>
<stop offset="0.32" stop-color="#73C2EF"/>
<stop offset="0.53" stop-color="#6EB9F1"/>
<stop offset="0.72" stop-color="#66AAF5"/>
<stop offset="0.88" stop-color="#5A95FA"/>
<stop offset="1" stop-color="#4F80FF"/>
</linearGradient>
<linearGradient id="paint4_linear_1103_1966" x1="10.0156" y1="2.83203" x2="29.8369" y2="37.168" gradientUnits="userSpaceOnUse">
<stop offset="0.0756688" stop-color="#F8D72A"/>
<stop offset="0.924331" stop-color="#FF8B04"/>
</linearGradient>
</defs>
</svg>
