<svg width="120" height="40" viewBox="0 0 120 40" fill="none" xmlns="http://www.w3.org/2000/svg">
<path d="M29.8906 2.85156H10.0703L19.9843 20.0234L29.8906 2.85156Z" fill="url(#paint0_linear_1101_1974)"/>
<path d="M29.8906 2.85156L19.9844 20.0234L29.8906 37.1875L39.8047 20.0234L29.8906 2.85156Z" fill="url(#paint1_linear_1101_1974)"/>
<path d="M10.0703 2.85156L0.164078 20.0234L10.0703 37.1875L19.9844 20.0234L10.0703 2.85156Z" fill="url(#paint2_linear_1101_1974)"/>
<path d="M19.9843 20.0234L10.0703 37.1875H29.8906L19.9843 20.0234Z" fill="url(#paint3_linear_1101_1974)"/>
<g style="mix-blend-mode:color">
<path fill-rule="evenodd" clip-rule="evenodd" d="M39.8007 20.0039L29.8867 37.168H10.0664L0.160126 20.0039L10.0663 2.83208L10.0663 2.83203H10.0664H29.8866H29.8867L39.8007 20.0039Z" fill="url(#paint4_linear_1101_1974)"/>
</g>
<path d="M52.8523 14C55.5114 14 57.1222 12.3551 57.1222 9.62784C57.1222 6.90909 55.5114 5.27273 52.8778 5.27273H49.7585V14H52.8523ZM51.6037 12.419V6.85369H52.7798C54.4162 6.85369 55.2812 7.68892 55.2812 9.62784C55.2812 11.5753 54.4162 12.419 52.7756 12.419H51.6037ZM61.4379 14.1278C63.0572 14.1278 64.1481 13.3395 64.4038 12.125L62.7248 12.0142C62.5415 12.5128 62.0728 12.7727 61.4677 12.7727C60.56 12.7727 59.9847 12.1719 59.9847 11.196V11.1918H64.4421V10.6932C64.4421 8.46875 63.0955 7.36932 61.3654 7.36932C59.4393 7.36932 58.1907 8.73722 58.1907 10.7571C58.1907 12.8324 59.4222 14.1278 61.4379 14.1278ZM59.9847 10.0668C60.0231 9.32102 60.5898 8.72443 61.3952 8.72443C62.1836 8.72443 62.729 9.28693 62.7333 10.0668H59.9847ZM68.5842 14.1278C70.3271 14.1278 71.4222 13.1051 71.5075 11.6009H69.7944C69.6879 12.2997 69.2276 12.6918 68.6055 12.6918C67.7575 12.6918 67.2077 11.9801 67.2077 10.7273C67.2077 9.49148 67.7617 8.78409 68.6055 8.78409C69.2702 8.78409 69.6964 9.22301 69.7944 9.875H71.5075C71.4308 8.36222 70.2844 7.36932 68.5756 7.36932C66.5898 7.36932 65.3626 8.74574 65.3626 10.7528C65.3626 12.7429 66.5685 14.1278 68.5842 14.1278ZM75.6527 14.1278C77.272 14.1278 78.3629 13.3395 78.6186 12.125L76.9396 12.0142C76.7564 12.5128 76.2876 12.7727 75.6825 12.7727C74.7749 12.7727 74.1996 12.1719 74.1996 11.196V11.1918H78.657V10.6932C78.657 8.46875 77.3104 7.36932 75.5803 7.36932C73.6541 7.36932 72.4055 8.73722 72.4055 10.7571C72.4055 12.8324 73.6371 14.1278 75.6527 14.1278ZM74.1996 10.0668C74.2379 9.32102 74.8047 8.72443 75.6101 8.72443C76.3984 8.72443 76.9439 9.28693 76.9482 10.0668H74.1996ZM81.657 10.2159C81.6612 9.37216 82.1641 8.87784 82.897 8.87784C83.6257 8.87784 84.0646 9.35511 84.0604 10.1562V14H85.8757V9.83239C85.8757 8.30682 84.9808 7.36932 83.6172 7.36932C82.6456 7.36932 81.9425 7.84659 81.6484 8.60938H81.5717V7.45455H79.8416V14H81.657V10.2159ZM90.788 7.45455H89.5565V5.88636H87.7411V7.45455H86.8462V8.81818H87.7411V12.2273C87.7326 13.5099 88.6062 14.1449 89.9229 14.0895C90.3917 14.0724 90.7241 13.9787 90.9073 13.919L90.6218 12.5682C90.5323 12.5852 90.3406 12.6278 90.1701 12.6278C89.8079 12.6278 89.5565 12.4915 89.5565 11.9886V8.81818H90.788V7.45455ZM91.9705 14H93.7859V10.2969C93.7859 9.49148 94.3739 8.9375 95.1751 8.9375C95.4265 8.9375 95.7717 8.98011 95.9421 9.03551V7.42472C95.7802 7.38636 95.5543 7.3608 95.3711 7.3608C94.6381 7.3608 94.0373 7.78693 93.7987 8.59659H93.7305V7.45455H91.9705V14Z" fill="#B6B7BA"/>
<path d="M49.517 35H53.2074V27.7898H60.3068V24.7472H53.2074V20.5881H61.0739V17.5455H49.517V35ZM68.4929 35.2557C71.7315 35.2557 73.9134 33.679 74.4247 31.25L71.0668 31.0284C70.7003 32.0256 69.7628 32.5455 68.5526 32.5455C66.7372 32.5455 65.5866 31.3438 65.5866 29.392V29.3835H74.5014V28.3864C74.5014 23.9375 71.8082 21.7386 68.348 21.7386C64.4957 21.7386 61.9986 24.4744 61.9986 28.5142C61.9986 32.6648 64.4616 35.2557 68.4929 35.2557ZM65.5866 27.1335C65.6634 25.642 66.7969 24.4489 68.4077 24.4489C69.9844 24.4489 71.0753 25.5739 71.0838 27.1335H65.5866ZM82.8366 35.2557C86.0753 35.2557 88.2571 33.679 88.7685 31.25L85.4105 31.0284C85.044 32.0256 84.1065 32.5455 82.8963 32.5455C81.081 32.5455 79.9304 31.3438 79.9304 29.392V29.3835H88.8452V28.3864C88.8452 23.9375 86.152 21.7386 82.6918 21.7386C78.8395 21.7386 76.3423 24.4744 76.3423 28.5142C76.3423 32.6648 78.8054 35.2557 82.8366 35.2557ZM79.9304 27.1335C80.0071 25.642 81.1406 24.4489 82.7514 24.4489C84.3281 24.4489 85.419 25.5739 85.4276 27.1335H79.9304ZM96.0384 35.2131C98.152 35.2131 99.2514 33.9943 99.7543 32.9034H99.9077V35H103.487V17.5455H99.8651V24.108H99.7543C99.2685 23.0426 98.2202 21.7386 96.0298 21.7386C93.1577 21.7386 90.7287 23.9716 90.7287 28.4716C90.7287 32.8523 93.0554 35.2131 96.0384 35.2131ZM97.1889 32.3239C95.4077 32.3239 94.4361 30.7386 94.4361 28.4545C94.4361 26.1875 95.3906 24.6278 97.1889 24.6278C98.9531 24.6278 99.9418 26.1193 99.9418 28.4545C99.9418 30.7898 98.9361 32.3239 97.1889 32.3239Z" fill="white"/>
<defs>
<linearGradient id="paint0_linear_1101_1974" x1="19.9828" y1="20.2898" x2="19.9828" y2="2.06232" gradientUnits="userSpaceOnUse">
<stop stop-color="#74C5EE"/>
<stop offset="0.32" stop-color="#73C2EF"/>
<stop offset="0.53" stop-color="#6EB9F1"/>
<stop offset="0.72" stop-color="#66AAF5"/>
<stop offset="0.88" stop-color="#5A95FA"/>
<stop offset="1" stop-color="#4F80FF"/>
</linearGradient>
<linearGradient id="paint1_linear_1101_1974" x1="19.9617" y1="20.0207" x2="40.0679" y2="20.0207" gradientUnits="userSpaceOnUse">
<stop stop-color="#96D4C8"/>
<stop offset="1" stop-color="#42C0C6"/>
</linearGradient>
<linearGradient id="paint2_linear_1101_1974" x1="0.161586" y1="20.0207" x2="19.9828" y2="20.0207" gradientUnits="userSpaceOnUse">
<stop stop-color="#4F80FF"/>
<stop offset="0.28" stop-color="#4E7FFC"/>
<stop offset="0.48" stop-color="#4A7CF3"/>
<stop offset="0.64" stop-color="#4477E4"/>
<stop offset="0.79" stop-color="#3C6FCE"/>
<stop offset="0.93" stop-color="#3166B3"/>
<stop offset="1" stop-color="#2B60A3"/>
</linearGradient>
<linearGradient id="paint3_linear_1101_1974" x1="19.9828" y1="19.1605" x2="19.9828" y2="37.2297" gradientUnits="userSpaceOnUse">
<stop stop-color="#74C5EE"/>
<stop offset="0.32" stop-color="#73C2EF"/>
<stop offset="0.53" stop-color="#6EB9F1"/>
<stop offset="0.72" stop-color="#66AAF5"/>
<stop offset="0.88" stop-color="#5A95FA"/>
<stop offset="1" stop-color="#4F80FF"/>
</linearGradient>
<linearGradient id="paint4_linear_1101_1974" x1="10.0156" y1="2.83203" x2="29.8369" y2="37.168" gradientUnits="userSpaceOnUse">
<stop offset="0.0756688" stop-color="#E87CC9"/>
<stop offset="0.924331" stop-color="#9F65FD"/>
</linearGradient>
</defs>
</svg>
