<svg xmlns="http://www.w3.org/2000/svg" viewBox="0 0 50 50">
  <g>
    <circle id="svg_1" stroke-width="2.8" stroke-linecap="round" stroke-linejoin="round" stroke-miterlimit="4"
            stroke="#000000" r="23" fill="none" cy="25" cx="25"/>
    <path id="svg_3" stroke-width="0" stroke-linecap="round" stroke-linejoin="round" stroke-miterlimit="4" fill="#ffffff"
          d="m23.779,16.241c-0.216,0 -0.357,-0.144 -0.357,-0.359l0,-2.618c0,-0.215 0.142,-0.359 0.357,-0.359l2.439,0c0.215,0 0.359,0.144 0.359,0.359l0,2.618c0,0.215 -0.145,0.359 -0.359,0.359l-2.439,0zm0.073,21.052c-0.215,0 -0.358,-0.143 -0.358,-0.358l0,-16.462c0,-0.215 0.144,-0.359 0.358,-0.359l2.295,0c0.216,0 0.359,0.144 0.359,0.359l0,16.462c0,0.216 -0.144,0.358 -0.359,0.358l-2.295,0z"/>
  </g>
</svg>
